<svg width="53" height="53" viewBox="0 0 53 53" fill="none" xmlns="http://www.w3.org/2000/svg">
<g filter="url(#filter0_d_12_59)">
<circle cx="26.5" cy="22.5" r="22.5" fill="#D9D9D9"/>
<circle cx="26.5" cy="22.5" r="21" stroke="#959696" stroke-width="3"/>
</g>
<path d="M35.7555 8.28603L36.0518 7.85598C36.1576 7.67604 36.2622 7.75133 36.388 7.84194C37.0254 8.30135 37.6678 8.7531 38.309 9.2074C38.4895 9.24186 38.6177 9.37457 38.7696 9.46263C39.0186 9.65788 39.3162 9.78421 39.5004 10.0611C39.9175 10.3649 40.3333 10.6737 40.7541 10.9736C41.0654 11.1943 41.0654 11.1867 40.8425 11.5134C40.4802 12.0442 40.1217 12.5777 39.7619 13.1098C39.7743 13.254 39.6673 13.3395 39.605 13.4467C39.3884 13.753 39.1792 14.0644 38.9701 14.3757C38.4356 15.1618 37.8986 15.945 37.3591 16.7251C37.2943 16.8157 37.2346 16.9101 37.176 17.0046C36.9457 17.3185 36.7366 17.649 36.5125 17.9693C35.6667 19.2089 34.8209 20.448 33.9752 21.6867C33.8706 21.8513 33.7498 22.0044 33.6453 22.1678C33.4784 22.423 33.2917 22.6668 33.1286 22.9335C32.5941 23.7196 32.0571 24.504 31.5176 25.2867C31.4142 25.4334 31.3234 25.5904 31.2113 25.732C31.0345 25.9975 30.854 26.2616 30.6735 26.5245C30.107 27.354 29.543 28.1835 28.9741 29.0142C28.9442 29.0627 28.9118 29.1087 28.8807 29.1559C28.6217 29.5196 28.374 29.8922 28.1237 30.2623C27.312 31.4606 26.4891 32.6512 25.6736 33.847C24.8253 35.0874 23.9783 36.3282 23.1326 37.5694C23.0604 37.6728 22.9931 37.78 22.9197 37.8834C22.6831 38.1692 22.5462 38.5355 22.2412 38.7677C22.093 38.8354 22.0569 38.6873 21.9922 38.6184C21.6734 38.2624 21.3697 37.8961 21.0522 37.5337C20.8254 37.3585 20.6264 37.1484 20.4621 36.9109C20.2853 36.7412 20.1645 36.5217 19.984 36.3558C19.7487 36.0713 19.5097 35.7905 19.2744 35.5072C19.1586 35.389 19.0528 35.2609 18.9581 35.1244C18.6656 34.7862 18.373 34.4493 18.0866 34.1035C18.0184 34.034 17.954 33.9607 17.8937 33.884C17.5837 33.4781 17.2089 33.1259 16.93 32.6921C16.93 32.678 16.93 32.664 16.93 32.6499C16.0428 31.589 15.1543 30.5282 14.2645 29.4673C13.5541 28.6233 12.8407 27.7819 12.1244 26.9431C12.0111 26.8155 11.9239 26.6879 12.1007 26.5437L12.163 26.4875C12.3049 26.2195 12.5539 26.0587 12.7693 25.8699C13.891 24.8796 15.0115 23.874 16.132 22.8799C16.3947 22.6489 16.4719 22.6489 16.6885 22.9054C17.7069 24.1101 18.7203 25.3173 19.7487 26.513C19.9977 26.8282 20.2542 27.1294 20.5256 27.4216C20.614 27.5612 20.718 27.6897 20.8356 27.8045C21.1144 28.1146 21.3224 28.4923 21.6759 28.7297C21.981 28.4387 22.1577 28.052 22.4067 27.7215C23.2185 26.5245 24.0414 25.3339 24.8556 24.1381C25.7047 22.899 26.5476 21.6548 27.3979 20.4157C27.4701 20.3123 27.5373 20.2051 27.6108 20.103C27.8274 19.7967 28.0353 19.4854 28.2457 19.174C28.7786 18.3887 29.3148 17.606 29.8543 16.8259C29.9178 16.734 29.9788 16.6409 30.0373 16.5464C30.2676 16.2312 30.4768 15.9007 30.7009 15.5817C31.5466 14.343 32.3924 13.1039 33.2381 11.8643C33.3415 11.6997 33.4635 11.5466 33.5681 11.3819C33.7349 11.1267 33.9216 10.883 34.0847 10.6226C34.5466 9.93352 35.0235 9.25334 35.4878 8.56678C35.5638 8.45959 35.6211 8.33197 35.7555 8.28603Z" fill="#959695"/>
<defs>
<filter id="filter0_d_12_59" x="0" y="0" width="53" height="53" filterUnits="userSpaceOnUse" color-interpolation-filters="sRGB">
<feFlood flood-opacity="0" result="BackgroundImageFix"/>
<feColorMatrix in="SourceAlpha" type="matrix" values="0 0 0 0 0 0 0 0 0 0 0 0 0 0 0 0 0 0 127 0" result="hardAlpha"/>
<feOffset dy="4"/>
<feGaussianBlur stdDeviation="2"/>
<feComposite in2="hardAlpha" operator="out"/>
<feColorMatrix type="matrix" values="0 0 0 0 0 0 0 0 0 0 0 0 0 0 0 0 0 0 0.25 0"/>
<feBlend mode="normal" in2="BackgroundImageFix" result="effect1_dropShadow_12_59"/>
<feBlend mode="normal" in="SourceGraphic" in2="effect1_dropShadow_12_59" result="shape"/>
</filter>
</defs>
</svg>
