<svg width="107" height="41" viewBox="0 0 107 41" fill="none" xmlns="http://www.w3.org/2000/svg">
<path d="M8.07685 4.45533C8.66291 1.85059 10.9761 0 13.646 0V0C17.3041 0 20.0182 3.39255 19.2152 6.96146L12.7047 35.8971C12.1186 38.5018 9.80535 40.3524 7.13549 40.3524V40.3524C3.47736 40.3524 0.763324 36.9599 1.56633 33.391L8.07685 4.45533Z" fill="#818185"/>
<path d="M29.0601 4.45544C29.6462 1.8507 31.9594 0.000109434 34.6293 0.000109434V0.000109434C38.2874 0.000109434 41.0015 3.39266 40.1984 6.96157L33.6879 35.8972C33.1019 38.5019 30.7886 40.3525 28.1188 40.3525V40.3525C24.4606 40.3525 21.7466 36.96 22.5496 33.3911L29.0601 4.45544Z" fill="#818185"/>
<path d="M50.0434 4.45544C50.6295 1.8507 52.9427 0.000109434 55.6126 0.000109434V0.000109434C59.2707 0.000109434 61.9848 3.39266 61.1818 6.96157L54.6712 35.8972C54.0852 38.5019 51.7719 40.3525 49.1021 40.3525V40.3525C45.4439 40.3525 42.7299 36.96 43.5329 33.3911L50.0434 4.45544Z" fill="#818185"/>
<path d="M72.0768 4.45533C72.6629 1.85059 74.9761 0 77.646 0V0C81.3041 0 84.0182 3.39255 83.2152 6.96146L76.7047 35.8971C76.1186 38.5018 73.8054 40.3524 71.1355 40.3524V40.3524C67.4774 40.3524 64.7633 36.9599 65.5663 33.391L72.0768 4.45533Z" fill="#818185"/>
<path d="M94.0768 4.45533C94.6629 1.85059 96.9761 0 99.646 0V0C103.304 0 106.018 3.39255 105.215 6.96146L98.7047 35.8971C98.1186 38.5018 95.8054 40.3524 93.1355 40.3524V40.3524C89.4774 40.3524 86.7633 36.9599 87.5663 33.391L94.0768 4.45533Z" fill="#818185"/>
</svg>
