<svg width="53" height="53" viewBox="0 0 53 53" fill="none" xmlns="http://www.w3.org/2000/svg">
<g filter="url(#filter0_d_12_63)">
<circle cx="26.5" cy="22.5" r="22.5" fill="#00AC26"/>
</g>
<path d="M35.7555 8.16979L36.0518 7.73974C36.1576 7.5598 36.2622 7.63509 36.388 7.7257C37.0254 8.18511 37.6678 8.63686 38.309 9.09116C38.4895 9.12561 38.6177 9.25833 38.7696 9.34639C39.0186 9.54163 39.3162 9.66797 39.5004 9.94489C39.9175 10.2486 40.3333 10.5574 40.7541 10.8573C41.0654 11.0781 41.0654 11.0704 40.8425 11.3971C40.4802 11.928 40.1217 12.4614 39.7619 12.9936C39.7743 13.1378 39.6673 13.2233 39.605 13.3305C39.3884 13.6367 39.1792 13.9481 38.9701 14.2595C38.4356 15.0456 37.8986 15.8287 37.3591 16.6089C37.2943 16.6995 37.2346 16.7939 37.176 16.8883C36.9457 17.2023 36.7366 17.5328 36.5125 17.8531C35.6667 19.0926 34.8209 20.3318 33.9752 21.5705C33.8706 21.7351 33.7498 21.8882 33.6453 22.0516C33.4784 22.3068 33.2917 22.5505 33.1286 22.8172C32.5941 23.6033 32.0571 24.3877 31.5176 25.1704C31.4142 25.3172 31.3234 25.4741 31.2113 25.6158C31.0345 25.8812 30.854 26.1454 30.6735 26.4083C30.107 27.2378 29.543 28.0672 28.9741 28.898C28.9442 28.9465 28.9118 28.9924 28.8807 29.0396C28.6217 29.4033 28.374 29.776 28.1237 30.1461C27.312 31.3443 26.4891 32.535 25.6736 33.7307C24.8253 34.9711 23.9783 36.2119 23.1326 37.4532C23.0604 37.5566 22.9931 37.6637 22.9197 37.7671C22.6831 38.053 22.5462 38.4192 22.2412 38.6515C22.093 38.7191 22.0569 38.5711 21.9922 38.5022C21.6734 38.1461 21.3697 37.7799 21.0522 37.4175C20.8254 37.2422 20.6264 37.0322 20.4621 36.7947C20.2853 36.625 20.1645 36.4055 19.984 36.2396C19.7487 35.955 19.5097 35.6743 19.2744 35.391C19.1586 35.2727 19.0528 35.1446 18.9581 35.0081C18.6656 34.6699 18.373 34.333 18.0866 33.9872C18.0184 33.9177 17.954 33.8444 17.8937 33.7677C17.5837 33.3619 17.2089 33.0097 16.93 32.5758C16.93 32.5618 16.93 32.5477 16.93 32.5337C16.0428 31.4728 15.1543 30.4119 14.2645 29.351C13.5541 28.5071 12.8407 27.6657 12.1244 26.8268C12.0111 26.6992 11.9239 26.5716 12.1007 26.4274L12.163 26.3713C12.3049 26.1033 12.5539 25.9425 12.7693 25.7536C13.891 24.7633 15.0115 23.7577 16.132 22.7636C16.3947 22.5327 16.4719 22.5327 16.6885 22.7892C17.7069 23.9938 18.7203 25.201 19.7487 26.3968C19.9977 26.712 20.2542 27.0132 20.5256 27.3054C20.614 27.445 20.718 27.5734 20.8356 27.6882C21.1144 27.9983 21.3224 28.3761 21.6759 28.6134C21.981 28.3225 22.1577 27.9358 22.4067 27.6053C23.2185 26.4083 24.0414 25.2176 24.8556 24.0219C25.7047 22.7828 26.5476 21.5385 27.3979 20.2994C27.4701 20.1961 27.5373 20.0889 27.6108 19.9868C27.8274 19.6805 28.0353 19.3691 28.2457 19.0577C28.7786 18.2725 29.3148 17.4898 29.8543 16.7097C29.9178 16.6178 29.9788 16.5246 30.0373 16.4302C30.2676 16.115 30.4768 15.7845 30.7009 15.4654C31.5466 14.2267 32.3924 12.9876 33.2381 11.7481C33.3415 11.5834 33.4635 11.4303 33.5681 11.2657C33.7349 11.0105 33.9216 10.7667 34.0847 10.5064C34.5466 9.81728 35.0235 9.1371 35.4878 8.45054C35.5638 8.34335 35.6211 8.21573 35.7555 8.16979Z" fill="white"/>
<defs>
<filter id="filter0_d_12_63" x="0" y="0" width="53" height="53" filterUnits="userSpaceOnUse" color-interpolation-filters="sRGB">
<feFlood flood-opacity="0" result="BackgroundImageFix"/>
<feColorMatrix in="SourceAlpha" type="matrix" values="0 0 0 0 0 0 0 0 0 0 0 0 0 0 0 0 0 0 127 0" result="hardAlpha"/>
<feOffset dy="4"/>
<feGaussianBlur stdDeviation="2"/>
<feComposite in2="hardAlpha" operator="out"/>
<feColorMatrix type="matrix" values="0 0 0 0 0 0 0 0 0 0 0 0 0 0 0 0 0 0 0.25 0"/>
<feBlend mode="normal" in2="BackgroundImageFix" result="effect1_dropShadow_12_63"/>
<feBlend mode="normal" in="SourceGraphic" in2="effect1_dropShadow_12_63" result="shape"/>
</filter>
</defs>
</svg>
