<svg width="360" height="121" viewBox="0 0 360 121" fill="none" xmlns="http://www.w3.org/2000/svg">
<path d="M367 0L326.539 -1.76859e-06L189.368 140.132L189.368 160.855L367 160.855L367 121.382L266.342 121.382L367 20.7237L367 0Z" fill="#343434" fill-opacity="0.5"/>
<path d="M267.329 40.4605L308.776 0L187.395 -5.30576e-06L187.395 40.4605L267.329 40.4605Z" fill="#343434" fill-opacity="0.5"/>
<path d="M172.592 1.97366L-7.0132 1.97366L-7.0132 20.7237L12.7236 41.4473L90.6842 41.4473L71.9342 60.1973L12.7236 60.1973L12.7236 102.632L71.9342 102.632L130.158 161.842L172.592 161.842L172.592 141.118L112.395 80.921L172.592 20.7237L172.592 1.97366Z" fill="#343434" fill-opacity="0.5"/>
</svg>
